<?xml version="1.0" encoding="UTF-8"?>
<svg id="Layer_2" data-name="Layer 2" xmlns="http://www.w3.org/2000/svg" viewBox="0 0 938.37 134.51">
  <defs>
    <style>
      .cls-1 {
        fill: #000;
      }

      .cls-1, .cls-2 {
        stroke-width: 0px;
      }

      .cls-2 {
        fill: #fff;
      }
    </style>
  </defs>
  <g id="Layer_1-2" data-name="Layer 1">
    <g>
      <path class="cls-2" d="M0,134.51V0h938.37v134.51H0ZM591.97,129.29h339.99V18.61h-339.99v110.68ZM54.04,58.28c-6.19,0-12.11.13-18.02-.05-2.93-.09-5.88-.6-8.29-2.6-5.7-4.75-5.87-12.52,1.5-15.88,2.1-.96,4.47-1.55,6.77-1.78,3.33-.33,6.7-.17,10.06-.26,2.72-.07,3.61-.72,4.1-3.27.23-1.2.22-2.51.01-3.72-.4-2.36-1.51-3.17-3.96-3.19-3.16-.02-6.33-.11-9.49.02-4.79.19-9.53.78-13.97,2.8-10.53,4.8-14.46,17.03-8.49,26.73,1.01,1.64,2.34,3.09,3.58,4.69-3.8,1.09-6.12,3.76-7.88,7.04-1.83,3.39-2.75,7.07-3.13,10.84-.51,4.99-.49,10.06,2,14.58,4.05,7.35,10.65,11.4,18.84,12.22,6.73.67,13.55.39,20.33.49,3.89.05,7.78.1,11.66-.02,4.27-.13,6.52-1.07,6.49-6.47-.11-25.51-.04-51.02-.03-76.54,0-.63.07-1.27.12-2.19,1.32,0,2.49,0,3.66,0,5.07,0,10.15-.03,15.22.02,1.77.02,3.57.09,5.3.41,4.61.85,9.88,4.21,10.32,9.86.38,4.88.62,9.81.32,14.68-.27,4.38-2.89,7.58-7.23,8.84-2.68.78-5.48,1.31-8.26,1.52-3.41.26-6.85.04-10.28.08-3.36.04-5.25,1.59-5.71,4.75-.43,2.97.9,6.73,5.53,6.91,5.78.21,11.53.43,17.27-.49,9.39-1.51,17.29-6.86,19.61-16.73,1.74-7.37,1.61-14.81.41-22.24-1.39-8.58-6.63-14-14.51-17.04-4.69-1.81-9.69-2.36-14.65-2.44-7.9-.13-15.8.14-23.7.34-3.2.08-4.95,1.68-5,4.59-.22,12.34-.35,24.69-.5,37.03-.03,2.09,0,4.17,0,6.47ZM259.88,118.73c-1.85-5.24-1.62-10.55-1.61-15.84,0-3.94.24-7.9-.05-11.82-.46-6.17-2-11.91-8.43-14.94.35-.31.55-.58.82-.72,3.93-2.14,5.88-5.71,6.84-9.85,1.65-7.12,1.65-14.28.05-21.42-1.34-6-4.87-10.13-10.88-11.69-3.02-.78-6.21-1.12-9.33-1.22-5.92-.19-11.86-.06-17.79-.06-.77,0-1.54.07-2.31.1v87.39h13.85v-35.32c1.93,0,3.69-.1,5.45.02,3.43.24,6.3,1.41,7.27,5.14.29,1.13.52,2.3.55,3.46.18,7.02.23,14.04.45,21.06.06,1.92.56,3.82.86,5.72h14.26ZM327.48,74.82c0-6.77.03-13.54-.02-20.31-.02-2.36-.08-4.74-.41-7.07-1.11-7.79-4.88-13.6-12.71-16.09-4.59-1.46-9.28-1.39-13.99-.42-3.9.81-7.3,2.43-9.93,5.51-3.54,4.14-4.84,9.15-4.91,14.36-.18,14-.09,28-.04,42,.01,3.46-.04,6.97.44,10.38.99,7.07,4.44,12.52,11.41,15.21,4.66,1.8,9.5,1.98,14.34,1.11,7.01-1.26,12.12-5.01,14.15-12.01.93-3.22,1.49-6.65,1.6-10,.23-7.55.07-15.12.07-22.68ZM499.11,86.19c0,2.71.07,5.26-.02,7.81-.1,2.87-.16,5.75-.58,8.58-.37,2.51-3.2,4.47-5.97,4.58-3.25.13-6.17-1.51-6.84-4.15-.49-1.95-.8-3.99-.81-6-.07-15.05-.06-30.11,0-45.16,0-1.61.3-3.27.79-4.8.89-2.79,3.46-4.15,7.09-4.04,2.75.08,5.21,1.79,5.72,4.5.44,2.35.4,4.8.48,7.21.07,2.01.01,4.02.01,6.04h13.09c.16-.81.39-1.56.43-2.32.25-4.73-.09-9.44-1.22-14.04-1.62-6.57-5.46-11.28-12.14-13.17-4.6-1.3-9.28-1.29-14-.2-5.57,1.29-9.59,4.35-11.87,9.6-1.78,4.09-2.34,8.43-2.36,12.83-.04,13.94-.06,27.87.02,41.81.02,3.19.19,6.45.82,9.56,1.49,7.39,5.66,12.53,13.3,14.33,3.55.84,7.1.92,10.75.45,8.22-1.05,14.02-6.22,15.52-14.36.55-3.01.98-6.08,1.09-9.13.11-3.25-.22-6.51-.36-9.94h-12.96ZM150.71,31.17v87.49h13.63v-32.42c4.14-.21,7.75-.33,11.35-.6,7.37-.54,13.79-6.29,14.94-13.66,1.39-8.85,1.52-17.78-.05-26.59-1.11-6.25-4.71-10.97-11.13-12.73-3-.82-6.16-1.31-9.27-1.43-5.72-.22-11.46-.06-17.19-.06-.71,0-1.41,0-2.28,0ZM406.96,31.33v87.37h37.46v-12.58h-23.48v-25.26h18.61v-12.74h-18.67v-24.21h23.55v-12.59h-37.47ZM550.41,43.89v74.82h13.95V43.9h14.08v-12.57h-42.27v12.57h14.24ZM351.89,118.83c3.54,0,6.88.21,10.19-.04,6.97-.54,11.94-4,14.45-10.64,1.55-4.09,1.98-8.37,1.96-12.72-.12-20.78-.25-41.55-.38-62.33,0-.57-.09-1.14-.14-1.76h-13.51c0,1.07,0,1.97,0,2.88.02,15.78.12,31.56.04,47.34-.03,6.42-.33,12.86-.75,19.27-.24,3.66-2.06,5.06-5.79,5.23-2.01.09-4.02.23-6.08.35v12.42ZM115.79,91.96h-12.4c-.09.75-.22,1.38-.22,2.01-.02,2.7-.08,5.39.03,8.09.04.92.54,1.82.97,3.19-1.1,3.29-2.37,7.09-3.7,11.07h2.64c1.41-4.07,2.79-8.05,4.16-12.01h4.43c1.4,4.03,2.78,8.02,4.15,11.96h2.64c-1.35-4.03-2.64-7.84-3.67-10.91,1.77-4.84.68-9.06.96-13.4ZM111.22,86c-.28.68-.53,1.27-.76,1.83-.73.13-1.4.26-2.02.37-.47-.62-.89-1.16-1.32-1.73.21-.48.43-.99.72-1.65h-3.36c-.91,2.63.58,5.47,3.2,6.28,2.95.91,5.85-.89,6.63-4.1.53-2.18-1.57-5.28-3.92-5.78-2.61-.55-5.09.85-5.56,3.19h5.14c.4.51.79,1.01,1.24,1.58ZM372,10.17c-.69-1.22-1.22-2.17-1.77-3.1-.59-1-1.21-1.99-1.78-2.93-3.7.39-6.74,2.79-7.67,6.03h11.21ZM379.8,18.58h-11.07c1.25,2.18,2.36,4.13,3.43,6,3.73-.37,6.91-2.91,7.64-6ZM374.77,13.83c1.41-2.43,2.57-4.42,3.76-6.48-2.72-2.28-5.48-3.94-9.4-3.36,1.87,3.27,3.64,6.35,5.64,9.85ZM373.22,17.72h7.17c1.25-3.42.62-6.5-1.46-9.79-1.93,3.3-3.72,6.38-5.71,9.79ZM371.57,24.8c-1.94-3.36-3.7-6.41-5.63-9.77-1.28,2.21-2.41,4.16-3.6,6.2,2.5,2.68,5.32,3.95,9.23,3.57ZM360.45,11.04c-1.29,3.47-.61,7.35,1.67,9.36,1.76-3.06,3.5-6.11,5.37-9.36h-7.04ZM370.47,16.65c1.33-.02,2.42-1.07,2.43-2.33,0-1.24-1.35-2.49-2.64-2.42-1.35.07-2.24,1.09-2.2,2.51.05,1.47.9,2.26,2.41,2.24ZM107.8,85.88c.03.32.05.64.08.96.76.17,1.52.34,2.28.51.15-.22.29-.44.44-.66-.38-.54-.67-1.32-1.18-1.53-.38-.15-1.07.45-1.62.72Z"/>
      <path class="cls-1" d="M591.97,129.29V18.61h339.99v110.68h-339.99ZM637.01,71.92c-.07.14-.04-.01.05-.08.32-.23.65-.44.98-.64,3.61-2.15,5.64-5.42,6.46-9.44,1.17-5.78,1.25-11.59,0-17.37-1.21-5.64-4.25-9.86-10.01-11.51-2.43-.7-5-1.17-7.52-1.23-7.04-.18-14.08-.1-21.13-.11-.49,0-.99.12-1.42.17v87.16c9.13-.21,18.15-.09,27.12-.72,7.17-.51,12.46-5.75,14.2-12.79,1.51-6.14,1.48-12.36.67-18.57-.44-3.35-.99-6.85-3.3-9.49-1.72-1.97-3.94-3.51-6.09-5.37ZM876.08,31.58v86.97h13.68v-37.21h15.81v37.16h13.63V31.69h-13.73v37.2h-15.84V31.58h-13.54ZM673.49,73.49s-.06,0-.1,0c-.05,1.05-.14,2.1-.15,3.15-.04,9.12-.83,18.27.67,27.33,1.11,6.7,4.52,11.87,11.18,14.23,4.83,1.71,9.82,2.15,14.92.98,6.22-1.43,10.55-4.99,13.03-10.86,1.64-3.9,1.79-8.03,1.83-12.14.09-10.13.08-20.25.01-30.38-.04-6.16-.05-12.32-.45-18.46-.26-4.1-1.82-7.91-4.75-10.95-5.91-6.13-13.4-6.9-21.14-5.39-10.93,2.14-14.77,10-15.02,19.03-.21,7.81-.04,15.64-.04,23.46ZM783.71,75.4c0-7.76.06-15.51-.04-23.27-.03-2.46-.27-4.97-.82-7.36-1.58-6.78-5.68-11.31-12.49-13.31-4.12-1.2-8.28-1.38-12.44-.61-5.97,1.11-10.72,4-13.44,9.74-1.95,4.13-2.46,8.56-2.47,12.97-.04,14.58.16,29.16.3,43.74.02,2.16.08,4.34.42,6.46,1.13,7.16,4.81,12.36,11.93,14.69,4.45,1.45,8.97,1.73,13.59.78,3.4-.7,6.51-1.9,9.13-4.26,4.57-4.11,6.12-9.53,6.27-15.34.21-8.07.05-16.16.05-24.24ZM822.46,43.73v74.83h13.48V43.64h14.09v-11.96h-41.95v12.06h14.38Z"/>
      <path class="cls-1" d="M54.04,58.28c0-2.3-.02-4.38,0-6.47.15-12.34.28-24.69.5-37.03.05-2.91,1.8-4.51,5-4.59,7.9-.21,15.8-.47,23.7-.34,4.96.08,9.97.63,14.65,2.44,7.88,3.04,13.12,8.46,14.51,17.04,1.2,7.43,1.33,14.87-.41,22.24-2.32,9.87-10.23,15.22-19.61,16.73-5.75.92-11.49.71-17.27.49-4.63-.17-5.96-3.94-5.53-6.91.46-3.17,2.35-4.71,5.71-4.75,3.43-.04,6.87.18,10.28-.08,2.78-.21,5.58-.74,8.26-1.52,4.34-1.26,6.95-4.46,7.23-8.84.3-4.87.07-9.8-.32-14.68-.44-5.65-5.71-9.01-10.32-9.86-1.73-.32-3.53-.39-5.3-.41-5.07-.05-10.15-.02-15.22-.02-1.17,0-2.34,0-3.66,0-.05.93-.12,1.56-.12,2.19-.01,25.51-.08,51.02.03,76.54.02,5.4-2.22,6.34-6.49,6.47-3.88.12-7.78.07-11.66.02-6.78-.09-13.6.18-20.33-.49-8.19-.81-14.78-4.87-18.84-12.22-2.49-4.52-2.51-9.59-2-14.58.38-3.77,1.31-7.45,3.13-10.84,1.77-3.27,4.09-5.94,7.88-7.04-1.23-1.6-2.57-3.04-3.58-4.69-5.97-9.69-2.05-21.93,8.49-26.73,4.45-2.02,9.18-2.61,13.97-2.8,3.16-.13,6.33-.04,9.49-.02,2.45.01,3.56.83,3.96,3.19.21,1.21.22,2.52-.01,3.72-.49,2.55-1.38,3.19-4.1,3.27-3.35.09-6.73-.08-10.06.26-2.3.23-4.67.82-6.77,1.78-7.37,3.36-7.2,11.14-1.5,15.88,2.4,2,5.36,2.51,8.29,2.6,5.91.18,11.84.05,18.02.05ZM54.01,68.2c-3.32,0-6.44.28-9.49-.07-4.76-.54-9.45-.23-14.08.65-6.36,1.21-10.78,4.65-11.62,11.53-.83,6.77,1.4,13.32,8.97,15.68,6.28,1.96,12.7,1.55,19.13,1.19,2.34-.13,4.68-.24,7.09-.37v-28.62Z"/>
      <path class="cls-1" d="M259.88,118.73h-14.26c-.3-1.9-.8-3.81-.86-5.72-.22-7.02-.28-14.04-.45-21.06-.03-1.16-.26-2.33-.55-3.46-.97-3.72-3.84-4.89-7.27-5.14-1.75-.13-3.52-.02-5.45-.02v35.32h-13.85V31.26c.78-.04,1.54-.1,2.31-.1,5.93,0,11.87-.13,17.79.06,3.13.1,6.31.44,9.33,1.22,6,1.56,9.54,5.68,10.88,11.69,1.6,7.14,1.6,14.3-.05,21.42-.96,4.14-2.9,7.71-6.84,9.85-.27.15-.47.41-.82.72,6.43,3.03,7.98,8.77,8.43,14.94.29,3.92.06,7.88.05,11.82-.01,5.29-.24,10.6,1.61,15.84ZM231.05,70.49c2.4,0,4.64.21,6.84-.04,4.08-.46,6.25-2.79,6.39-6.88.15-4.33.17-8.67-.02-13-.11-2.46-.91-4.91-3.5-5.9-3.12-1.2-6.4-.86-9.7-.63v26.45Z"/>
      <path class="cls-1" d="M327.48,74.82c0,7.56.16,15.12-.07,22.68-.1,3.35-.66,6.77-1.6,10-2.03,7-7.14,10.76-14.15,12.01-4.85.87-9.68.69-14.34-1.11-6.97-2.69-10.42-8.13-11.41-15.21-.48-3.42-.43-6.92-.44-10.38-.04-14-.14-28,.04-42,.07-5.21,1.37-10.22,4.91-14.36,2.63-3.07,6.04-4.7,9.93-5.51,4.71-.98,9.4-1.04,13.99.42,7.83,2.49,11.6,8.3,12.71,16.09.33,2.33.39,4.71.41,7.07.05,6.77.02,13.54.02,20.31ZM299.39,75.13h.02c0,8.15-.06,16.3.03,24.44.04,3.06.87,5.88,4.14,7.16,2.95,1.15,6.25.45,8.14-1.77,1.58-1.86,1.8-4.17,1.8-6.48.02-15.64.02-31.28,0-46.92,0-1.04-.16-2.09-.37-3.11-.78-3.69-2.98-5.45-6.79-5.46-3.74-.01-5.73,1.59-6.56,5.37-.24,1.08-.38,2.19-.39,3.29-.03,7.82-.02,15.64-.02,23.46Z"/>
      <path class="cls-1" d="M499.11,86.19h12.96c.14,3.43.47,6.69.36,9.94-.11,3.05-.53,6.12-1.09,9.13-1.5,8.15-7.3,13.31-15.52,14.36-3.65.47-7.2.39-10.75-.45-7.64-1.8-11.81-6.95-13.3-14.33-.63-3.12-.8-6.37-.82-9.56-.08-13.94-.05-27.87-.02-41.81.01-4.41.58-8.74,2.36-12.83,2.28-5.25,6.3-8.31,11.87-9.6,4.71-1.09,9.39-1.1,14,.2,6.68,1.88,10.52,6.59,12.14,13.17,1.13,4.6,1.46,9.3,1.22,14.04-.04.76-.27,1.51-.43,2.32h-13.09c0-2.02.06-4.03-.01-6.04-.08-2.41-.04-4.86-.48-7.21-.51-2.71-2.96-4.41-5.72-4.5-3.63-.11-6.2,1.25-7.09,4.04-.49,1.53-.79,3.2-.79,4.8-.06,15.05-.06,30.11,0,45.16,0,2,.32,4.05.81,6,.67,2.64,3.59,4.28,6.84,4.15,2.76-.11,5.59-2.08,5.97-4.58.42-2.83.48-5.72.58-8.58.09-2.55.02-5.1.02-7.81Z"/>
      <path class="cls-1" d="M150.71,31.17c.87,0,1.57,0,2.28,0,5.73,0,11.47-.16,17.19.06,3.11.12,6.27.61,9.27,1.43,6.42,1.77,10.02,6.49,11.13,12.73,1.57,8.81,1.43,17.74.05,26.59-1.15,7.37-7.57,13.11-14.94,13.66-3.6.26-7.21.38-11.35.6v32.42h-13.63V31.17ZM164.58,73.3c2.16,0,4.12,0,6.09,0,4.49,0,6.72-2.03,6.81-6.52.1-5.39.1-10.78-.01-16.17-.05-2.25-.49-4.59-2.83-5.68-3.2-1.49-6.6-1.18-10.05-.89v29.26Z"/>
      <path class="cls-1" d="M406.96,31.33h37.47v12.59h-23.55v24.21h18.67v12.74h-18.61v25.26h23.48v12.58h-37.46V31.33Z"/>
      <path class="cls-1" d="M550.41,43.89h-14.24v-12.57h42.27v12.57h-14.08v74.81h-13.95V43.89Z"/>
      <path class="cls-1" d="M351.89,118.83v-12.42c2.05-.12,4.06-.26,6.08-.35,3.73-.17,5.55-1.57,5.79-5.23.42-6.41.72-12.84.75-19.27.08-15.78-.01-31.56-.04-47.34,0-.9,0-1.81,0-2.88h13.51c.05.62.13,1.19.14,1.76.13,20.78.25,41.55.38,62.33.03,4.34-.41,8.62-1.96,12.72-2.51,6.64-7.49,10.1-14.45,10.64-3.31.26-6.65.04-10.19.04Z"/>
      <path class="cls-1" d="M115.79,91.96c-.27,4.34.82,8.56-.96,13.4,1.03,3.06,2.31,6.88,3.67,10.91h-2.64c-1.37-3.95-2.75-7.93-4.15-11.96h-4.43c-1.37,3.95-2.75,7.94-4.16,12.01h-2.64c1.33-3.98,2.6-7.78,3.7-11.07-.44-1.37-.94-2.27-.97-3.19-.11-2.69-.05-5.39-.03-8.09,0-.63.13-1.26.22-2.01h12.4Z"/>
      <path class="cls-1" d="M111.22,86c-.45-.57-.84-1.07-1.24-1.58h-5.14c.47-2.34,2.95-3.74,5.56-3.19,2.35.49,4.45,3.59,3.92,5.78-.78,3.21-3.69,5.01-6.63,4.1-2.62-.81-4.11-3.65-3.2-6.28h3.36c-.28.65-.51,1.17-.72,1.65.43.57.85,1.11,1.32,1.73.62-.11,1.29-.24,2.02-.37.23-.56.48-1.15.76-1.83Z"/>
      <path class="cls-1" d="M372,10.17h-11.21c.94-3.24,3.97-5.64,7.67-6.03.57.93,1.18,1.92,1.78,2.93.55.93,1.07,1.88,1.77,3.1Z"/>
      <path class="cls-1" d="M379.8,18.58c-.73,3.09-3.92,5.63-7.64,6-1.07-1.87-2.18-3.82-3.43-6h11.07Z"/>
      <path class="cls-1" d="M374.77,13.83c-2-3.5-3.77-6.58-5.64-9.85,3.93-.57,6.68,1.09,9.4,3.36-1.2,2.06-2.35,4.06-3.76,6.48Z"/>
      <path class="cls-1" d="M373.22,17.72c1.99-3.41,3.78-6.49,5.71-9.79,2.08,3.28,2.71,6.37,1.46,9.79h-7.17Z"/>
      <path class="cls-1" d="M371.57,24.8c-3.91.38-6.73-.89-9.23-3.57,1.18-2.04,2.32-3.99,3.6-6.2,1.94,3.36,3.69,6.4,5.63,9.77Z"/>
      <path class="cls-1" d="M360.45,11.04h7.04c-1.87,3.25-3.61,6.29-5.37,9.36-2.28-2.01-2.96-5.89-1.67-9.36Z"/>
      <path class="cls-1" d="M370.47,16.65c-1.51.02-2.36-.77-2.41-2.24-.05-1.42.85-2.44,2.2-2.51,1.29-.07,2.65,1.18,2.64,2.42,0,1.26-1.1,2.31-2.43,2.33Z"/>
      <path class="cls-1" d="M107.8,85.88c.55-.27,1.23-.87,1.62-.72.52.2.8.99,1.18,1.53-.15.22-.29.44-.44.66-.76-.17-1.52-.34-2.28-.51-.03-.32-.05-.64-.08-.96Z"/>
      <path class="cls-2" d="M637.01,71.92c2.15,1.86,4.37,3.4,6.09,5.37,2.31,2.64,2.86,6.14,3.3,9.49.81,6.2.85,12.43-.67,18.57-1.73,7.05-7.03,12.29-14.2,12.79-8.96.64-17.98.51-27.12.72V31.71c.43-.06.92-.18,1.42-.17,7.04,0,14.09-.07,21.13.11,2.52.06,5.09.54,7.52,1.23,5.76,1.65,8.8,5.88,10.01,11.51,1.25,5.78,1.17,11.59,0,17.37-.82,4.02-2.84,7.29-6.46,9.44-.34.2-.67.41-.98.64-.09.07-.12.22-.05.08ZM617.94,106.25c.82.1,1.52.28,2.21.26,2.29-.07,4.59-.19,6.88-.33,3.15-.2,5.45-1.76,5.64-4.89.33-5.39.2-10.82-.08-16.22-.1-1.9-1.18-3.76-3.22-4.62-3.67-1.55-7.47-1.4-11.43-1.04v26.83ZM617.99,43.75v23.34c2.21,0,4.25.12,6.27-.02,4.26-.29,7.15-2.85,7.29-6.54.13-3.41.12-6.84,0-10.25-.13-3.66-2.35-6.16-5.86-6.48-2.47-.22-4.99-.04-7.7-.04Z"/>
      <path class="cls-2" d="M876.08,31.58h13.54v37.31h15.84V31.69h13.73v86.81h-13.63v-37.16h-15.81v37.21h-13.68V31.58Z"/>
      <path class="cls-2" d="M673.49,73.49c0-7.82-.17-15.64.04-23.46.25-9.03,4.09-16.89,15.02-19.03,7.74-1.52,15.22-.74,21.14,5.39,2.93,3.04,4.49,6.85,4.75,10.95.4,6.14.41,12.31.45,18.46.06,10.13.08,20.25-.01,30.38-.04,4.11-.19,8.24-1.83,12.14-2.48,5.87-6.8,9.43-13.03,10.86-5.1,1.17-10.09.73-14.92-.98-6.65-2.35-10.07-7.53-11.18-14.23-1.5-9.06-.71-18.21-.67-27.33,0-1.05.09-2.1.15-3.15.03,0,.06,0,.1,0ZM686.83,74.98c0,7.82-.02,15.63.02,23.45,0,1.29.15,2.6.41,3.87.59,2.94,3.03,4.96,5.95,5.04,4.37.12,6.77-1.21,7.51-4.68.48-2.26.49-4.65.5-6.98.04-13.01.02-26.01.01-39.02,0-2.47.14-4.95-.07-7.4-.49-5.74-6.9-8.57-11.55-5.14-2.19,1.62-2.75,4.06-2.76,6.61-.04,8.08-.02,16.16-.02,24.24Z"/>
      <path class="cls-2" d="M783.71,75.4c0,8.08.16,16.16-.05,24.24-.15,5.81-1.7,11.23-6.27,15.34-2.62,2.35-5.73,3.56-9.13,4.26-4.62.95-9.14.67-13.59-.78-7.12-2.33-10.8-7.53-11.93-14.69-.34-2.12-.4-4.3-.42-6.46-.15-14.58-.35-29.16-.3-43.74.01-4.41.52-8.84,2.47-12.97,2.71-5.74,7.47-8.62,13.44-9.74,4.16-.78,8.32-.6,12.44.61,6.82,1.99,10.92,6.52,12.49,13.31.56,2.39.79,4.9.82,7.36.1,7.75.04,15.51.04,23.27ZM755.64,74.79c0,7.56-.02,15.11.02,22.67,0,1.43.15,2.88.39,4.29.57,3.3,2.82,5.42,5.63,5.6,5.42.36,7.2-2.02,8.05-4.93.4-1.36.58-2.82.61-4.24.05-2.56-.12-5.12-.13-7.68-.01-10.58.03-21.16,0-31.74,0-3.27-.05-6.54-.27-9.79-.19-2.77-1.59-4.9-4.32-5.77-2.76-.88-5.42-.65-7.67,1.49-1.86,1.77-2.29,4.07-2.31,6.45-.06,7.88-.02,15.77-.02,23.65Z"/>
      <path class="cls-2" d="M822.46,43.73h-14.38v-12.06h41.95v11.96h-14.09v74.93h-13.48V43.73Z"/>
      <path class="cls-2" d="M54.01,68.2v28.62c-2.41.12-4.75.23-7.09.37-6.42.36-12.85.77-19.13-1.19-7.57-2.36-9.8-8.91-8.97-15.68.84-6.88,5.26-10.32,11.62-11.53,4.63-.88,9.32-1.2,14.08-.65,3.05.35,6.17.07,9.49.07Z"/>
      <path class="cls-2" d="M231.05,70.49v-26.45c3.3-.23,6.58-.57,9.7.63,2.58.99,3.39,3.45,3.5,5.9.19,4.32.17,8.67.02,13-.14,4.09-2.31,6.41-6.39,6.88-2.19.25-4.44.04-6.84.04Z"/>
      <path class="cls-2" d="M299.39,75.13c0-7.82-.02-15.64.02-23.46,0-1.1.15-2.22.39-3.29.83-3.79,2.82-5.39,6.56-5.37,3.8.01,6.01,1.77,6.79,5.46.21,1.02.37,2.07.37,3.11.02,15.64.03,31.28,0,46.92,0,2.3-.22,4.61-1.8,6.48-1.89,2.22-5.18,2.92-8.14,1.77-3.27-1.28-4.1-4.1-4.14-7.16-.1-8.15-.03-16.3-.03-24.44h-.02Z"/>
      <path class="cls-2" d="M164.58,73.3v-29.26c3.45-.28,6.85-.6,10.05.89,2.34,1.09,2.79,3.43,2.83,5.68.11,5.39.12,10.78.01,16.17-.09,4.49-2.31,6.52-6.81,6.52-1.96,0-3.93,0-6.09,0Z"/>
      <path class="cls-1" d="M617.94,106.25v-26.83c3.96-.36,7.76-.51,11.43,1.04,2.04.86,3.12,2.72,3.22,4.62.28,5.4.41,10.83.08,16.22-.19,3.13-2.49,4.69-5.64,4.89-2.29.14-4.58.26-6.88.33-.69.02-1.38-.16-2.21-.26Z"/>
      <path class="cls-1" d="M617.99,43.75c2.72,0,5.23-.18,7.7.04,3.51.31,5.73,2.82,5.86,6.48.12,3.41.13,6.84,0,10.25-.14,3.69-3.03,6.25-7.29,6.54-2.02.14-4.07.02-6.27.02v-23.34Z"/>
      <path class="cls-1" d="M686.83,74.98c0-8.08-.03-16.16.02-24.24.01-2.54.57-4.99,2.76-6.61,4.65-3.43,11.06-.6,11.55,5.14.21,2.45.07,4.93.07,7.4,0,13.01.03,26.01-.01,39.02,0,2.33-.01,4.72-.5,6.98-.74,3.47-3.14,4.8-7.51,4.68-2.92-.08-5.36-2.1-5.95-5.04-.25-1.27-.4-2.58-.41-3.87-.04-7.82-.02-15.63-.02-23.45Z"/>
      <path class="cls-1" d="M755.64,74.79c0-7.88-.03-15.77.02-23.65.02-2.37.45-4.68,2.31-6.45,2.24-2.14,4.91-2.36,7.67-1.49,2.73.87,4.13,3,4.32,5.77.22,3.26.26,6.53.27,9.79.02,10.58-.01,21.16,0,31.74,0,2.56.18,5.12.13,7.68-.03,1.42-.22,2.88-.61,4.24-.85,2.91-2.63,5.29-8.05,4.93-2.81-.19-5.06-2.3-5.63-5.6-.25-1.41-.39-2.86-.39-4.29-.04-7.56-.02-15.11-.02-22.67Z"/>
    </g>
  </g>
</svg>